<mxfile host="Electron" modified="2023-05-10T22:48:26.051Z" agent="Mozilla/5.0 (Windows NT 10.0; Win64; x64) AppleWebKit/537.36 (KHTML, like Gecko) draw.io/21.2.8 Chrome/112.0.5615.165 Electron/24.2.0 Safari/537.36" etag="fr6vm4kp5vkXYz0FaIG3" version="21.2.8" type="device">
  <diagram name="Page-1" id="SD4eHrMes1UsB8KiQ-vR">
    <mxGraphModel dx="1886" dy="1706" grid="1" gridSize="10" guides="1" tooltips="1" connect="1" arrows="1" fold="1" page="1" pageScale="1" pageWidth="850" pageHeight="1100" math="0" shadow="0">
      <root>
        <mxCell id="0" />
        <mxCell id="1" parent="0" />
        <mxCell id="M5VmBKZHqRc0fouPAjqq-10" style="edgeStyle=orthogonalEdgeStyle;rounded=0;orthogonalLoop=1;jettySize=auto;html=1;exitX=0;exitY=0.5;exitDx=0;exitDy=0;entryX=1;entryY=0;entryDx=0;entryDy=0;" edge="1" parent="1" source="M5VmBKZHqRc0fouPAjqq-4" target="M5VmBKZHqRc0fouPAjqq-9">
          <mxGeometry relative="1" as="geometry" />
        </mxCell>
        <mxCell id="M5VmBKZHqRc0fouPAjqq-4" value="Light sensor" style="whiteSpace=wrap;html=1;" vertex="1" parent="1">
          <mxGeometry x="560" y="70" width="120" height="60" as="geometry" />
        </mxCell>
        <mxCell id="M5VmBKZHqRc0fouPAjqq-11" style="edgeStyle=orthogonalEdgeStyle;rounded=0;orthogonalLoop=1;jettySize=auto;html=1;exitX=0;exitY=0.5;exitDx=0;exitDy=0;entryX=1;entryY=0.5;entryDx=0;entryDy=0;" edge="1" parent="1" source="M5VmBKZHqRc0fouPAjqq-6" target="M5VmBKZHqRc0fouPAjqq-9">
          <mxGeometry relative="1" as="geometry" />
        </mxCell>
        <mxCell id="M5VmBKZHqRc0fouPAjqq-6" value="Sound sensor" style="whiteSpace=wrap;html=1;" vertex="1" parent="1">
          <mxGeometry x="560" y="150" width="120" height="60" as="geometry" />
        </mxCell>
        <mxCell id="M5VmBKZHqRc0fouPAjqq-12" style="edgeStyle=orthogonalEdgeStyle;rounded=0;orthogonalLoop=1;jettySize=auto;html=1;exitX=0;exitY=0.5;exitDx=0;exitDy=0;entryX=1;entryY=1;entryDx=0;entryDy=0;" edge="1" parent="1" source="M5VmBKZHqRc0fouPAjqq-8" target="M5VmBKZHqRc0fouPAjqq-9">
          <mxGeometry relative="1" as="geometry" />
        </mxCell>
        <mxCell id="M5VmBKZHqRc0fouPAjqq-8" value="Temperature and&amp;nbsp;&lt;br&gt;Humidity sensor" style="whiteSpace=wrap;html=1;" vertex="1" parent="1">
          <mxGeometry x="560" y="230" width="120" height="60" as="geometry" />
        </mxCell>
        <mxCell id="M5VmBKZHqRc0fouPAjqq-9" value="Arduino" style="whiteSpace=wrap;html=1;" vertex="1" parent="1">
          <mxGeometry x="330" y="150" width="120" height="60" as="geometry" />
        </mxCell>
        <mxCell id="M5VmBKZHqRc0fouPAjqq-13" value="" style="endArrow=none;dashed=1;html=1;dashPattern=1 3;strokeWidth=2;rounded=0;" edge="1" parent="1">
          <mxGeometry width="50" height="50" relative="1" as="geometry">
            <mxPoint x="290" y="320" as="sourcePoint" />
            <mxPoint x="290" y="40" as="targetPoint" />
          </mxGeometry>
        </mxCell>
        <mxCell id="M5VmBKZHqRc0fouPAjqq-14" value="" style="endArrow=none;dashed=1;html=1;dashPattern=1 3;strokeWidth=2;rounded=0;" edge="1" parent="1">
          <mxGeometry width="50" height="50" relative="1" as="geometry">
            <mxPoint x="290" y="320" as="sourcePoint" />
            <mxPoint x="700" y="320" as="targetPoint" />
          </mxGeometry>
        </mxCell>
        <mxCell id="M5VmBKZHqRc0fouPAjqq-15" value="" style="endArrow=none;dashed=1;html=1;dashPattern=1 3;strokeWidth=2;rounded=0;" edge="1" parent="1">
          <mxGeometry width="50" height="50" relative="1" as="geometry">
            <mxPoint x="700" y="320" as="sourcePoint" />
            <mxPoint x="700" y="40" as="targetPoint" />
          </mxGeometry>
        </mxCell>
        <mxCell id="M5VmBKZHqRc0fouPAjqq-16" value="" style="endArrow=none;dashed=1;html=1;dashPattern=1 3;strokeWidth=2;rounded=0;" edge="1" parent="1">
          <mxGeometry width="50" height="50" relative="1" as="geometry">
            <mxPoint x="290" y="40" as="sourcePoint" />
            <mxPoint x="700" y="40" as="targetPoint" />
          </mxGeometry>
        </mxCell>
        <mxCell id="M5VmBKZHqRc0fouPAjqq-17" value="Use protothreads for each sensor and syncronize them&amp;nbsp;" style="text;html=1;strokeColor=none;fillColor=none;align=center;verticalAlign=middle;whiteSpace=wrap;rounded=0;" vertex="1" parent="1">
          <mxGeometry x="310" y="10" width="370" height="30" as="geometry" />
        </mxCell>
        <mxCell id="M5VmBKZHqRc0fouPAjqq-35" style="edgeStyle=orthogonalEdgeStyle;rounded=0;orthogonalLoop=1;jettySize=auto;html=1;exitX=0;exitY=0.5;exitDx=0;exitDy=0;entryX=0.443;entryY=1.023;entryDx=0;entryDy=0;entryPerimeter=0;" edge="1" parent="1" source="M5VmBKZHqRc0fouPAjqq-18" target="M5VmBKZHqRc0fouPAjqq-34">
          <mxGeometry relative="1" as="geometry" />
        </mxCell>
        <mxCell id="M5VmBKZHqRc0fouPAjqq-18" value="RaspberryPi Grove Base&amp;nbsp; Hat" style="rounded=0;whiteSpace=wrap;html=1;" vertex="1" parent="1">
          <mxGeometry x="330" y="470" width="120" height="60" as="geometry" />
        </mxCell>
        <mxCell id="M5VmBKZHqRc0fouPAjqq-19" value="" style="endArrow=classic;html=1;rounded=0;exitX=0.5;exitY=1;exitDx=0;exitDy=0;entryX=0.5;entryY=0;entryDx=0;entryDy=0;" edge="1" parent="1" source="M5VmBKZHqRc0fouPAjqq-9" target="M5VmBKZHqRc0fouPAjqq-18">
          <mxGeometry width="50" height="50" relative="1" as="geometry">
            <mxPoint x="400" y="310" as="sourcePoint" />
            <mxPoint x="450" y="260" as="targetPoint" />
          </mxGeometry>
        </mxCell>
        <mxCell id="M5VmBKZHqRc0fouPAjqq-20" value="Communicating&lt;br&gt;through Serial Monitor" style="edgeLabel;html=1;align=center;verticalAlign=middle;resizable=0;points=[];" vertex="1" connectable="0" parent="M5VmBKZHqRc0fouPAjqq-19">
          <mxGeometry x="-0.2625" y="4" relative="1" as="geometry">
            <mxPoint as="offset" />
          </mxGeometry>
        </mxCell>
        <mxCell id="M5VmBKZHqRc0fouPAjqq-25" style="edgeStyle=orthogonalEdgeStyle;rounded=0;orthogonalLoop=1;jettySize=auto;html=1;exitX=0;exitY=0.25;exitDx=0;exitDy=0;entryX=1;entryY=0.75;entryDx=0;entryDy=0;" edge="1" parent="1" source="M5VmBKZHqRc0fouPAjqq-21" target="M5VmBKZHqRc0fouPAjqq-18">
          <mxGeometry relative="1" as="geometry" />
        </mxCell>
        <mxCell id="M5VmBKZHqRc0fouPAjqq-21" value="Ultrasonic&amp;nbsp;sensor" style="whiteSpace=wrap;html=1;" vertex="1" parent="1">
          <mxGeometry x="560" y="500" width="120" height="60" as="geometry" />
        </mxCell>
        <mxCell id="M5VmBKZHqRc0fouPAjqq-22" value="Barometer" style="whiteSpace=wrap;html=1;" vertex="1" parent="1">
          <mxGeometry x="560" y="410" width="120" height="60" as="geometry" />
        </mxCell>
        <mxCell id="M5VmBKZHqRc0fouPAjqq-26" style="edgeStyle=orthogonalEdgeStyle;rounded=0;orthogonalLoop=1;jettySize=auto;html=1;exitX=0;exitY=0.5;exitDx=0;exitDy=0;entryX=1;entryY=1;entryDx=0;entryDy=0;" edge="1" parent="1" source="M5VmBKZHqRc0fouPAjqq-23" target="M5VmBKZHqRc0fouPAjqq-18">
          <mxGeometry relative="1" as="geometry" />
        </mxCell>
        <mxCell id="M5VmBKZHqRc0fouPAjqq-23" value="MQ2 Gas sensor" style="whiteSpace=wrap;html=1;" vertex="1" parent="1">
          <mxGeometry x="560" y="590" width="120" height="60" as="geometry" />
        </mxCell>
        <mxCell id="M5VmBKZHqRc0fouPAjqq-24" value="" style="endArrow=classic;html=1;rounded=0;exitX=0;exitY=0.25;exitDx=0;exitDy=0;entryX=1;entryY=0;entryDx=0;entryDy=0;" edge="1" parent="1" source="M5VmBKZHqRc0fouPAjqq-22" target="M5VmBKZHqRc0fouPAjqq-18">
          <mxGeometry width="50" height="50" relative="1" as="geometry">
            <mxPoint x="460" y="520" as="sourcePoint" />
            <mxPoint x="510" y="470" as="targetPoint" />
          </mxGeometry>
        </mxCell>
        <mxCell id="M5VmBKZHqRc0fouPAjqq-28" value="" style="endArrow=none;dashed=1;html=1;dashPattern=1 3;strokeWidth=2;rounded=0;" edge="1" parent="1">
          <mxGeometry width="50" height="50" relative="1" as="geometry">
            <mxPoint x="290" y="670" as="sourcePoint" />
            <mxPoint x="290" y="390" as="targetPoint" />
          </mxGeometry>
        </mxCell>
        <mxCell id="M5VmBKZHqRc0fouPAjqq-29" value="" style="endArrow=none;dashed=1;html=1;dashPattern=1 3;strokeWidth=2;rounded=0;" edge="1" parent="1">
          <mxGeometry width="50" height="50" relative="1" as="geometry">
            <mxPoint x="290" y="390" as="sourcePoint" />
            <mxPoint x="700" y="390" as="targetPoint" />
          </mxGeometry>
        </mxCell>
        <mxCell id="M5VmBKZHqRc0fouPAjqq-30" value="" style="endArrow=none;dashed=1;html=1;dashPattern=1 3;strokeWidth=2;rounded=0;" edge="1" parent="1">
          <mxGeometry width="50" height="50" relative="1" as="geometry">
            <mxPoint x="290" y="670" as="sourcePoint" />
            <mxPoint x="700" y="670" as="targetPoint" />
          </mxGeometry>
        </mxCell>
        <mxCell id="M5VmBKZHqRc0fouPAjqq-31" value="" style="endArrow=none;dashed=1;html=1;dashPattern=1 3;strokeWidth=2;rounded=0;" edge="1" parent="1">
          <mxGeometry width="50" height="50" relative="1" as="geometry">
            <mxPoint x="700" y="670" as="sourcePoint" />
            <mxPoint x="700" y="390" as="targetPoint" />
          </mxGeometry>
        </mxCell>
        <mxCell id="M5VmBKZHqRc0fouPAjqq-32" value="Use threads for each sensor and for the data from Arduino and syncronize them" style="text;html=1;align=center;verticalAlign=middle;resizable=0;points=[];autosize=1;strokeColor=none;fillColor=none;" vertex="1" parent="1">
          <mxGeometry x="260" y="358" width="450" height="30" as="geometry" />
        </mxCell>
        <mxCell id="M5VmBKZHqRc0fouPAjqq-38" value="" style="edgeStyle=orthogonalEdgeStyle;rounded=0;orthogonalLoop=1;jettySize=auto;html=1;" edge="1" parent="1" source="M5VmBKZHqRc0fouPAjqq-34" target="M5VmBKZHqRc0fouPAjqq-37">
          <mxGeometry relative="1" as="geometry" />
        </mxCell>
        <mxCell id="M5VmBKZHqRc0fouPAjqq-34" value="Main Thread" style="whiteSpace=wrap;html=1;" vertex="1" parent="1">
          <mxGeometry x="30" y="300" width="120" height="60" as="geometry" />
        </mxCell>
        <mxCell id="M5VmBKZHqRc0fouPAjqq-36" value="Main thread will collect data from all the sensors&lt;br&gt;and than do different manipulations. It should start and syncronize the threads,&lt;br&gt;And in the main program to have only 1 thread started.&lt;br&gt;[!} Should be discussed with the proffesor if the tasks,&lt;br&gt;are understood correctly" style="text;html=1;align=center;verticalAlign=middle;resizable=0;points=[];autosize=1;strokeColor=none;fillColor=none;" vertex="1" parent="1">
          <mxGeometry x="-180" y="505" width="440" height="90" as="geometry" />
        </mxCell>
        <mxCell id="M5VmBKZHqRc0fouPAjqq-37" value="LCD&amp;nbsp;" style="rounded=0;whiteSpace=wrap;html=1;" vertex="1" parent="1">
          <mxGeometry x="30" y="130" width="120" height="60" as="geometry" />
        </mxCell>
        <mxCell id="M5VmBKZHqRc0fouPAjqq-40" value="Data collected from the main thread will be displayed on the display" style="text;html=1;align=center;verticalAlign=middle;resizable=0;points=[];autosize=1;strokeColor=none;fillColor=none;" vertex="1" parent="1">
          <mxGeometry x="-100" y="85" width="380" height="30" as="geometry" />
        </mxCell>
        <mxCell id="M5VmBKZHqRc0fouPAjqq-43" value="" style="endArrow=classic;html=1;rounded=0;exitX=1;exitY=0;exitDx=0;exitDy=0;entryX=0;entryY=0.5;entryDx=0;entryDy=0;" edge="1" parent="1" source="M5VmBKZHqRc0fouPAjqq-34" target="M5VmBKZHqRc0fouPAjqq-9">
          <mxGeometry width="50" height="50" relative="1" as="geometry">
            <mxPoint x="400" y="270" as="sourcePoint" />
            <mxPoint x="450" y="220" as="targetPoint" />
          </mxGeometry>
        </mxCell>
        <mxCell id="M5VmBKZHqRc0fouPAjqq-49" value="Send requests to arduino to do&lt;br&gt;something if X data satisfies a condition" style="edgeLabel;html=1;align=center;verticalAlign=middle;resizable=0;points=[];" vertex="1" connectable="0" parent="M5VmBKZHqRc0fouPAjqq-43">
          <mxGeometry x="-0.2349" y="3" relative="1" as="geometry">
            <mxPoint as="offset" />
          </mxGeometry>
        </mxCell>
        <mxCell id="M5VmBKZHqRc0fouPAjqq-44" value="Led" style="whiteSpace=wrap;html=1;" vertex="1" parent="1">
          <mxGeometry x="170" y="-140" width="120" height="60" as="geometry" />
        </mxCell>
        <mxCell id="M5VmBKZHqRc0fouPAjqq-45" value="Buzzer" style="whiteSpace=wrap;html=1;" vertex="1" parent="1">
          <mxGeometry x="40" y="-140" width="120" height="60" as="geometry" />
        </mxCell>
        <mxCell id="M5VmBKZHqRc0fouPAjqq-46" value="Button" style="whiteSpace=wrap;html=1;" vertex="1" parent="1">
          <mxGeometry x="40" y="-70" width="120" height="60" as="geometry" />
        </mxCell>
        <mxCell id="M5VmBKZHqRc0fouPAjqq-47" value="Rotary Potentiometer" style="whiteSpace=wrap;html=1;" vertex="1" parent="1">
          <mxGeometry x="170" y="-70" width="120" height="60" as="geometry" />
        </mxCell>
        <mxCell id="M5VmBKZHqRc0fouPAjqq-48" value="" style="shape=image;verticalLabelPosition=bottom;labelBackgroundColor=default;verticalAlign=top;aspect=fixed;imageAspect=0;image=https://www.why.gr/wp-content/uploads/2020/09/721162_2.jpg;" vertex="1" parent="1">
          <mxGeometry x="850" y="-100" width="620" height="269.7" as="geometry" />
        </mxCell>
        <mxCell id="M5VmBKZHqRc0fouPAjqq-53" value="" style="endArrow=none;html=1;rounded=0;" edge="1" parent="1">
          <mxGeometry width="50" height="50" relative="1" as="geometry">
            <mxPoint x="30" as="sourcePoint" />
            <mxPoint x="300" as="targetPoint" />
          </mxGeometry>
        </mxCell>
        <mxCell id="M5VmBKZHqRc0fouPAjqq-54" value="" style="endArrow=none;html=1;rounded=0;" edge="1" parent="1">
          <mxGeometry width="50" height="50" relative="1" as="geometry">
            <mxPoint x="30" as="sourcePoint" />
            <mxPoint x="30" y="-150" as="targetPoint" />
          </mxGeometry>
        </mxCell>
        <mxCell id="M5VmBKZHqRc0fouPAjqq-55" value="" style="endArrow=none;html=1;rounded=0;" edge="1" parent="1">
          <mxGeometry width="50" height="50" relative="1" as="geometry">
            <mxPoint x="30" y="-150" as="sourcePoint" />
            <mxPoint x="300" y="-150" as="targetPoint" />
          </mxGeometry>
        </mxCell>
        <mxCell id="M5VmBKZHqRc0fouPAjqq-56" value="" style="endArrow=none;html=1;rounded=0;" edge="1" parent="1">
          <mxGeometry width="50" height="50" relative="1" as="geometry">
            <mxPoint x="300" as="sourcePoint" />
            <mxPoint x="300" y="-150" as="targetPoint" />
          </mxGeometry>
        </mxCell>
        <mxCell id="M5VmBKZHqRc0fouPAjqq-57" value="" style="endArrow=classic;html=1;rounded=0;exitX=0;exitY=0;exitDx=0;exitDy=0;" edge="1" parent="1" source="M5VmBKZHqRc0fouPAjqq-9">
          <mxGeometry width="50" height="50" relative="1" as="geometry">
            <mxPoint x="300" y="180" as="sourcePoint" />
            <mxPoint x="280" as="targetPoint" />
          </mxGeometry>
        </mxCell>
        <mxCell id="M5VmBKZHqRc0fouPAjqq-58" value="Use any of these&lt;br&gt;for different data" style="edgeLabel;html=1;align=center;verticalAlign=middle;resizable=0;points=[];" vertex="1" connectable="0" parent="M5VmBKZHqRc0fouPAjqq-57">
          <mxGeometry x="-0.2344" y="-2" relative="1" as="geometry">
            <mxPoint x="1" as="offset" />
          </mxGeometry>
        </mxCell>
      </root>
    </mxGraphModel>
  </diagram>
</mxfile>
